<svg width="20" height="20" viewBox="0 0 20 20" fill="none" xmlns="http://www.w3.org/2000/svg">
<path d="M15.8333 17.5L9.99996 11.6667L8.04163 13.625C8.15274 13.8334 8.22913 14.0556 8.27079 14.2917C8.31246 14.5278 8.33329 14.7639 8.33329 15C8.33329 15.9167 8.0069 16.7014 7.35413 17.3542C6.70135 18.007 5.91663 18.3334 4.99996 18.3334C4.08329 18.3334 3.29857 18.007 2.64579 17.3542C1.99301 16.7014 1.66663 15.9167 1.66663 15C1.66663 14.0834 1.99301 13.2986 2.64579 12.6459C3.29857 11.9931 4.08329 11.6667 4.99996 11.6667C5.23607 11.6667 5.47218 11.6875 5.70829 11.7292C5.9444 11.7709 6.16663 11.8472 6.37496 11.9584L8.33329 10L6.37496 8.04169C6.16663 8.1528 5.9444 8.22919 5.70829 8.27085C5.47218 8.31252 5.23607 8.33335 4.99996 8.33335C4.08329 8.33335 3.29857 8.00696 2.64579 7.35419C1.99301 6.70141 1.66663 5.91669 1.66663 5.00002C1.66663 4.08335 1.99301 3.29863 2.64579 2.64585C3.29857 1.99308 4.08329 1.66669 4.99996 1.66669C5.91663 1.66669 6.70135 1.99308 7.35413 2.64585C8.0069 3.29863 8.33329 4.08335 8.33329 5.00002C8.33329 5.23613 8.31246 5.47224 8.27079 5.70835C8.22913 5.94446 8.15274 6.16669 8.04163 6.37502L18.3333 16.6667V17.5H15.8333ZM12.5 9.16669L10.8333 7.50002L15.8333 2.50002H18.3333V3.33335L12.5 9.16669ZM4.99996 6.66669C5.45829 6.66669 5.85065 6.50349 6.17704 6.1771C6.50343 5.85071 6.66663 5.45835 6.66663 5.00002C6.66663 4.54169 6.50343 4.14933 6.17704 3.82294C5.85065 3.49655 5.45829 3.33335 4.99996 3.33335C4.54163 3.33335 4.14926 3.49655 3.82288 3.82294C3.49649 4.14933 3.33329 4.54169 3.33329 5.00002C3.33329 5.45835 3.49649 5.85071 3.82288 6.1771C4.14926 6.50349 4.54163 6.66669 4.99996 6.66669ZM9.99996 10.4167C10.1111 10.4167 10.2083 10.375 10.2916 10.2917C10.375 10.2084 10.4166 10.1111 10.4166 10C10.4166 9.88891 10.375 9.79169 10.2916 9.70835C10.2083 9.62502 10.1111 9.58335 9.99996 9.58335C9.88885 9.58335 9.79163 9.62502 9.70829 9.70835C9.62496 9.79169 9.58329 9.88891 9.58329 10C9.58329 10.1111 9.62496 10.2084 9.70829 10.2917C9.79163 10.375 9.88885 10.4167 9.99996 10.4167ZM4.99996 16.6667C5.45829 16.6667 5.85065 16.5035 6.17704 16.1771C6.50343 15.8507 6.66663 15.4584 6.66663 15C6.66663 14.5417 6.50343 14.1493 6.17704 13.8229C5.85065 13.4965 5.45829 13.3334 4.99996 13.3334C4.54163 13.3334 4.14926 13.4965 3.82288 13.8229C3.49649 14.1493 3.33329 14.5417 3.33329 15C3.33329 15.4584 3.49649 15.8507 3.82288 16.1771C4.14926 16.5035 4.54163 16.6667 4.99996 16.6667Z" fill="#333333"/>
</svg>
