<svg width="20" height="20" viewBox="0 0 20 20" fill="none" xmlns="http://www.w3.org/2000/svg">
<path d="M17.5 17.5V4.16667H2.50004V10.8333H0.833374V4.16667C0.833374 3.70833 0.996568 3.31597 1.32296 2.98958C1.64935 2.66319 2.04171 2.5 2.50004 2.5H17.5C17.9584 2.5 18.3507 2.66319 18.6771 2.98958C19.0035 3.31597 19.1667 3.70833 19.1667 4.16667V15.8333C19.1667 16.2917 19.0035 16.684 18.6771 17.0104C18.3507 17.3368 17.9584 17.5 17.5 17.5ZM7.50004 11.6667C6.58337 11.6667 5.79865 11.3403 5.14587 10.6875C4.4931 10.0347 4.16671 9.25 4.16671 8.33333C4.16671 7.41667 4.4931 6.63194 5.14587 5.97917C5.79865 5.32639 6.58337 5 7.50004 5C8.41671 5 9.20143 5.32639 9.85421 5.97917C10.507 6.63194 10.8334 7.41667 10.8334 8.33333C10.8334 9.25 10.507 10.0347 9.85421 10.6875C9.20143 11.3403 8.41671 11.6667 7.50004 11.6667ZM7.50004 10C7.95837 10 8.35074 9.83681 8.67712 9.51042C9.00351 9.18403 9.16671 8.79167 9.16671 8.33333C9.16671 7.875 9.00351 7.48264 8.67712 7.15625C8.35074 6.82986 7.95837 6.66667 7.50004 6.66667C7.04171 6.66667 6.64935 6.82986 6.32296 7.15625C5.99657 7.48264 5.83337 7.875 5.83337 8.33333C5.83337 8.79167 5.99657 9.18403 6.32296 9.51042C6.64935 9.83681 7.04171 10 7.50004 10ZM0.833374 18.3333V16C0.833374 15.5278 0.954902 15.0937 1.19796 14.6979C1.44101 14.3021 1.76393 14 2.16671 13.7917C3.02782 13.3611 3.90282 13.0382 4.79171 12.8229C5.6806 12.6076 6.58337 12.5 7.50004 12.5C8.41671 12.5 9.31949 12.6076 10.2084 12.8229C11.0973 13.0382 11.9723 13.3611 12.8334 13.7917C13.2362 14 13.5591 14.3021 13.8021 14.6979C14.0452 15.0937 14.1667 15.5278 14.1667 16V18.3333H0.833374ZM2.50004 16.6667H12.5V16C12.5 15.8472 12.4618 15.7083 12.3855 15.5833C12.3091 15.4583 12.2084 15.3611 12.0834 15.2917C11.3334 14.9167 10.5764 14.6354 9.81254 14.4479C9.04865 14.2604 8.27782 14.1667 7.50004 14.1667C6.72226 14.1667 5.95143 14.2604 5.18754 14.4479C4.42365 14.6354 3.66671 14.9167 2.91671 15.2917C2.79171 15.3611 2.69101 15.4583 2.61462 15.5833C2.53824 15.7083 2.50004 15.8472 2.50004 16V16.6667Z" fill="#333333"/>
</svg>
