<svg width="20" height="20" viewBox="0 0 20 20" fill="none" xmlns="http://www.w3.org/2000/svg">
<path d="M5.83333 7.49998V5.83331H17.5V7.49998H5.83333ZM5.83333 10.8333V9.16665H17.5V10.8333H5.83333ZM5.83333 14.1666V12.5H17.5V14.1666H5.83333ZM3.33333 7.49998C3.09722 7.49998 2.89931 7.42012 2.73958 7.2604C2.57986 7.10067 2.5 6.90276 2.5 6.66665C2.5 6.43054 2.57986 6.23262 2.73958 6.0729C2.89931 5.91317 3.09722 5.83331 3.33333 5.83331C3.56944 5.83331 3.76736 5.91317 3.92708 6.0729C4.08681 6.23262 4.16667 6.43054 4.16667 6.66665C4.16667 6.90276 4.08681 7.10067 3.92708 7.2604C3.76736 7.42012 3.56944 7.49998 3.33333 7.49998ZM3.33333 10.8333C3.09722 10.8333 2.89931 10.7535 2.73958 10.5937C2.57986 10.434 2.5 10.2361 2.5 9.99998C2.5 9.76387 2.57986 9.56595 2.73958 9.40623C2.89931 9.24651 3.09722 9.16665 3.33333 9.16665C3.56944 9.16665 3.76736 9.24651 3.92708 9.40623C4.08681 9.56595 4.16667 9.76387 4.16667 9.99998C4.16667 10.2361 4.08681 10.434 3.92708 10.5937C3.76736 10.7535 3.56944 10.8333 3.33333 10.8333ZM3.33333 14.1666C3.09722 14.1666 2.89931 14.0868 2.73958 13.9271C2.57986 13.7673 2.5 13.5694 2.5 13.3333C2.5 13.0972 2.57986 12.8993 2.73958 12.7396C2.89931 12.5798 3.09722 12.5 3.33333 12.5C3.56944 12.5 3.76736 12.5798 3.92708 12.7396C4.08681 12.8993 4.16667 13.0972 4.16667 13.3333C4.16667 13.5694 4.08681 13.7673 3.92708 13.9271C3.76736 14.0868 3.56944 14.1666 3.33333 14.1666Z" fill="#333333"/>
</svg>
