<svg width="20" height="20" viewBox="0 0 20 20" fill="none" xmlns="http://www.w3.org/2000/svg">
<path d="M10 17.5C8.15282 17.5 6.5799 16.8576 5.28129 15.5729C3.98268 14.2882 3.33337 12.7361 3.33337 10.9166C3.33337 9.99996 3.50699 9.15274 3.85421 8.37496C4.20143 7.59718 4.6806 6.90274 5.29171 6.29163L10 1.66663L14.7084 6.29163C15.3195 6.90274 15.7987 7.59718 16.1459 8.37496C16.4931 9.15274 16.6667 9.99996 16.6667 10.9166C16.6667 12.7361 16.0174 14.2882 14.7188 15.5729C13.4202 16.8576 11.8473 17.5 10 17.5ZM10 15.8333V3.99996L6.45837 7.49996C5.97226 7.95829 5.60768 8.47565 5.36462 9.05204C5.12157 9.62843 5.00004 10.25 5.00004 10.9166C5.00004 12.2638 5.48615 13.4201 6.45837 14.3854C7.4306 15.3507 8.61115 15.8333 10 15.8333Z" fill="#333333"/>
</svg>
